<svg xmlns="http://www.w3.org/2000/svg" width="256" height="256" xml:space="preserve"><g style="stroke:none;stroke-width:0;stroke-dasharray:none;stroke-linecap:butt;stroke-linejoin:miter;stroke-miterlimit:10;fill:none;fill-rule:nonzero;opacity:1"><path d="M66.631 20.9H23.36a1 1 0 0 1 0-2h43.271a1 1 0 1 1 0 2zM66.631 30.243H23.36a1 1 0 0 1 0-2h43.271a1 1 0 1 1 0 2zM47.472 39.586H23.36a1 1 0 0 1 0-2h24.112a1 1 0 1 1 0 2zM68.172 78.945H44.996a1 1 0 1 1 0-2h23.176a1 1 0 1 1 0 2zM81.388 78.945h-5.845a1 1 0 1 1 0-2h5.845a1 1 0 1 1 0 2z" style="stroke:none;stroke-width:1;stroke-dasharray:none;stroke-linecap:butt;stroke-linejoin:miter;stroke-miterlimit:10;fill:#fff;fill-rule:nonzero;opacity:1" transform="matrix(2.81 0 0 2.81 1.407 1.407)"/><path d="M89.99 33.486a.97.97 0 0 0-.058-.286c-.01-.029-.019-.058-.032-.086a.984.984 0 0 0-.16-.238c-.022-.025-.043-.05-.068-.073-.03-.028-.048-.064-.083-.089l-12.256-8.818V8.004a1 1 0 0 0-1-1H53.859l-8.271-5.951a1 1 0 0 0-1.168 0l-8.271 5.951H13.656a1 1 0 0 0-1 1v15.902L.416 32.712a.996.996 0 0 0-.247.267c-.006.009-.016.014-.022.024-.004.007-.004.015-.009.023a.974.974 0 0 0-.115.304c-.009.04-.011.079-.014.12-.002.026-.009.05-.009.075v54.61a1 1 0 0 0 1 1h88a1 1 0 0 0 1-1V33.534c0-.017-.009-.031-.01-.048zm-2.771-.014-9.884 6.212V26.361l9.884 7.111zM45.004 3.097l5.431 3.907H39.573l5.431-3.907zm30.331 5.908v31.937L44.996 60.011l-30.34-19.069V9.005h60.679zm-62.679 30.68-9.877-6.208 9.877-7.106v13.314zM2 87.135V35.35l42.463 26.688a.994.994 0 0 0 1.064 0L88 35.344v51.791H2z" style="stroke:none;stroke-width:1;stroke-dasharray:none;stroke-linecap:butt;stroke-linejoin:miter;stroke-miterlimit:10;fill:#fff;fill-rule:nonzero;opacity:1" transform="matrix(2.81 0 0 2.81 1.407 1.407)"/><path d="M66.631 39.586h-6.163a1 1 0 1 1 0-2h6.163a1 1 0 1 1 0 2z" style="stroke:none;stroke-width:1;stroke-dasharray:none;stroke-linecap:butt;stroke-linejoin:miter;stroke-miterlimit:10;fill:#fff;fill-rule:nonzero;opacity:1" transform="matrix(2.81 0 0 2.81 1.407 1.407)"/></g></svg>